# xmcd
#
# Track frame offsets: 
#        150
#        16399
#        30923
#        44006
#        57839
#        73180
#        89787
#        104515
#        119998
#        136752
#        154339
#        167796
#
# Disc length: 2428 seconds
#
# Revision: 0
# Processed by: cddbd v1.5.1PL2 Copyright (c) Steve Scherf et al.
# Submitted via: ExactAudioCopy v0.95b4
#
DISCID=af097a0c
DTITLE=ฝน  ธนสุทนทร - ชุดพิเศษ
DYEAR=2006
DGENRE=Country
TTITLE0=รักต้องห้าม
TTITLE1=ว้าเหว่
TTITLE2=ใจคนคอย
TTITLE3=รักหมดใจ
TTITLE4=ระฆังใจ
TTITLE5=ดั่งนกเจ็บ
TTITLE6=ไฟเสน่หา
TTITLE7=คอย
TTITLE8=สายัณห์รัญจวน
TTITLE9=แหวนแลกใจ
TTITLE10=สายเกินไป
TTITLE11=ฝันฝัน
EXTD=
EXTT0=
EXTT1=
EXTT2=
EXTT3=
EXTT4=
EXTT5=
EXTT6=
EXTT7=
EXTT8=
EXTT9=
EXTT10=
EXTT11=
PLAYORDER=
